<svg width="10" height="6" viewBox="0 0 10 6" fill="none" xmlns="http://www.w3.org/2000/svg">
<path d="M9.47332 0.473337C9.41135 0.410852 9.33761 0.361255 9.25637 0.327409C9.17513 0.293564 9.088 0.276138 8.99999 0.276138C8.91198 0.276138 8.82484 0.293564 8.7436 0.327409C8.66236 0.361255 8.58863 0.410852 8.52666 0.473337L5.47332 3.52667C5.41135 3.58916 5.33761 3.63875 5.25637 3.6726C5.17513 3.70644 5.088 3.72387 4.99999 3.72387C4.91198 3.72387 4.82484 3.70644 4.7436 3.6726C4.66236 3.63875 4.58863 3.58916 4.52666 3.52667L1.47332 0.473337C1.41135 0.410852 1.33761 0.361255 1.25637 0.327409C1.17513 0.293564 1.088 0.276138 0.999989 0.276138C0.911981 0.276138 0.824844 0.293564 0.743605 0.327409C0.662365 0.361255 0.588631 0.410852 0.526656 0.473337C0.402489 0.598245 0.332794 0.767213 0.332794 0.943337C0.332794 1.11946 0.402489 1.28843 0.526656 1.41334L3.58666 4.47334C3.96166 4.84787 4.46999 5.05824 4.99999 5.05824C5.52999 5.05824 6.03832 4.84787 6.41332 4.47334L9.47332 1.41334C9.59749 1.28843 9.66718 1.11946 9.66718 0.943337C9.66718 0.767213 9.59749 0.598245 9.47332 0.473337Z" fill="#9C89B8"/>
</svg>
